P3
4	2
255
255	0	0	0	255	0	0	0	255	255	255	255	0	255	255	255	0	255	255	255	0	63	63	63	